<svg xmlns="http://www.w3.org/2000/svg" width="1200" height="630" viewBox="0 0 1200 630" role="img" aria-labelledby="title desc">
  <title id="title">CodeAgora social preview</title>
  <desc id="desc">CodeAgora landing page preview with Korean headline and review verdict UI.</desc>
  <defs>
    <linearGradient id="bg" x1="0" y1="0" x2="1" y2="1">
      <stop offset="0" stop-color="#111318"/>
      <stop offset="0.58" stop-color="#181c24"/>
      <stop offset="1" stop-color="#202633"/>
    </linearGradient>
    <linearGradient id="accent" x1="0" y1="0" x2="1" y2="0">
      <stop offset="0" stop-color="#05a6b9"/>
      <stop offset="0.52" stop-color="#7be6ef"/>
      <stop offset="1" stop-color="#86efac"/>
    </linearGradient>
    <filter id="shadow" x="-20%" y="-20%" width="140%" height="140%">
      <feDropShadow dx="0" dy="24" stdDeviation="28" flood-color="#000000" flood-opacity="0.34"/>
    </filter>
  </defs>

  <rect width="1200" height="630" fill="url(#bg)"/>
  <path d="M0 94H1200" stroke="#edf1ff" stroke-opacity="0.05"/>
  <path d="M0 188H1200" stroke="#edf1ff" stroke-opacity="0.05"/>
  <path d="M0 282H1200" stroke="#edf1ff" stroke-opacity="0.05"/>
  <path d="M0 376H1200" stroke="#edf1ff" stroke-opacity="0.05"/>
  <path d="M0 470H1200" stroke="#edf1ff" stroke-opacity="0.05"/>
  <path d="M120 0V630" stroke="#edf1ff" stroke-opacity="0.05"/>
  <path d="M240 0V630" stroke="#edf1ff" stroke-opacity="0.05"/>
  <path d="M360 0V630" stroke="#edf1ff" stroke-opacity="0.05"/>
  <path d="M480 0V630" stroke="#edf1ff" stroke-opacity="0.05"/>
  <path d="M600 0V630" stroke="#edf1ff" stroke-opacity="0.05"/>
  <path d="M720 0V630" stroke="#edf1ff" stroke-opacity="0.05"/>
  <path d="M840 0V630" stroke="#edf1ff" stroke-opacity="0.05"/>
  <path d="M960 0V630" stroke="#edf1ff" stroke-opacity="0.05"/>
  <path d="M1080 0V630" stroke="#edf1ff" stroke-opacity="0.05"/>

  <g transform="translate(78 72)">
    <rect x="0" y="0" width="54" height="54" rx="8" fill="#05a6b9" fill-opacity="0.16" stroke="#05a6b9" stroke-opacity="0.64"/>
    <g transform="translate(12 12)" fill="none" stroke="#7be6ef" stroke-width="2.2" stroke-linecap="round" stroke-linejoin="round">
      <path d="M15 1.5 27 8.5v14L15 29.5 3 22.5v-14Z"/>
      <path d="M15 7.5v15"/>
      <path d="M7.5 11.5 15 16l7.5-4.5"/>
      <circle cx="15" cy="16" r="4.5"/>
    </g>
    <text x="70" y="35" fill="#f3f6fb" font-family="ui-sans-serif, system-ui, -apple-system, BlinkMacSystemFont, 'Segoe UI', sans-serif" font-size="30" font-weight="850">CodeAgora</text>
  </g>

  <g transform="translate(78 178)">
    <text x="0" y="0" fill="#7be6ef" font-family="ui-sans-serif, system-ui, -apple-system, BlinkMacSystemFont, 'Segoe UI', sans-serif" font-size="22" font-weight="850">여러 AI가 토론하고 사람이 결정하는 코드 리뷰</text>
    <text x="0" y="92" fill="#f3f6fb" font-family="ui-sans-serif, system-ui, -apple-system, BlinkMacSystemFont, 'Segoe UI', sans-serif" font-size="72" font-weight="900">토론하는 리뷰,</text>
    <text x="0" y="174" fill="#f3f6fb" font-family="ui-sans-serif, system-ui, -apple-system, BlinkMacSystemFont, 'Segoe UI', sans-serif" font-size="72" font-weight="900">근거 있는 판정.</text>
    <text x="0" y="238" fill="#b8c0cf" font-family="ui-sans-serif, system-ui, -apple-system, BlinkMacSystemFont, 'Segoe UI', sans-serif" font-size="27" font-weight="600">근거와 판정을 한 장으로 정리합니다.</text>
  </g>

  <g transform="translate(710 142)" filter="url(#shadow)">
    <rect width="400" height="334" rx="10" fill="#10131a" stroke="#edf1ff" stroke-opacity="0.14"/>
    <rect width="400" height="42" rx="10" fill="#151922"/>
    <rect x="0" y="39" width="400" height="3" fill="url(#accent)"/>
    <circle cx="24" cy="21" r="5" fill="#ff5f56"/>
    <circle cx="42" cy="21" r="5" fill="#ffbd2e"/>
    <circle cx="60" cy="21" r="5" fill="#27c93f"/>
    <text x="84" y="27" fill="#8f99aa" font-family="ui-monospace, SFMono-Regular, Menlo, Consolas, monospace" font-size="14" font-weight="700">evidence review</text>

    <rect x="28" y="70" width="150" height="48" rx="8" fill="#05a6b9" fill-opacity="0.14" stroke="#05a6b9" stroke-opacity="0.34"/>
    <text x="46" y="100" fill="#7be6ef" font-family="ui-sans-serif, system-ui, -apple-system, BlinkMacSystemFont, 'Segoe UI', sans-serif" font-size="17" font-weight="850">파일 확인</text>
    <rect x="28" y="134" width="150" height="48" rx="8" fill="#fbbf24" fill-opacity="0.12" stroke="#fbbf24" stroke-opacity="0.3"/>
    <text x="46" y="164" fill="#fbbf24" font-family="ui-sans-serif, system-ui, -apple-system, BlinkMacSystemFont, 'Segoe UI', sans-serif" font-size="17" font-weight="850">근거 대조</text>
    <rect x="28" y="198" width="150" height="48" rx="8" fill="#86efac" fill-opacity="0.12" stroke="#86efac" stroke-opacity="0.3"/>
    <text x="46" y="228" fill="#86efac" font-family="ui-sans-serif, system-ui, -apple-system, BlinkMacSystemFont, 'Segoe UI', sans-serif" font-size="17" font-weight="850">반박 기록</text>

    <rect x="204" y="70" width="168" height="176" rx="8" fill="#edf1ff" fill-opacity="0.06" stroke="#edf1ff" stroke-opacity="0.12"/>
    <text x="226" y="116" fill="#fbbf24" font-family="ui-monospace, SFMono-Regular, Menlo, Consolas, monospace" font-size="21" font-weight="900">NEEDS_HUMAN</text>
    <text x="226" y="154" fill="#b8c0cf" font-family="ui-sans-serif, system-ui, -apple-system, BlinkMacSystemFont, 'Segoe UI', sans-serif" font-size="16" font-weight="700">2 confirmed</text>
    <text x="226" y="184" fill="#b8c0cf" font-family="ui-sans-serif, system-ui, -apple-system, BlinkMacSystemFont, 'Segoe UI', sans-serif" font-size="16" font-weight="700">1 contested</text>
    <rect x="226" y="208" width="116" height="10" rx="5" fill="url(#accent)"/>

    <rect x="28" y="272" width="344" height="34" rx="8" fill="#edf1ff" fill-opacity="0.055"/>
    <text x="48" y="294" fill="#edf1ff" font-family="ui-monospace, SFMono-Regular, Menlo, Consolas, monospace" font-size="15" font-weight="800">ACCEPT / REJECT / NEEDS_HUMAN</text>
  </g>
</svg>
